. 
  
http://www.torrentday.com/        :     The Hottest Private Tracker On The Net!!! 
http://www.torrentday.com          :     Once you visit it, You can't stop yourself visiting Torrentday everyday ;)


               www . TorrentDay . Com 

(((((((((((((= Enjoy No RAR releases =))))))))))))))))))))


...................................NFO:....................................

.[img]http://img828.imageshack.us/img828/3691/wyimage2.jpg[/img]

127 Hours 2010 DVDSCR XVID AC3 HQ Hive-CM8



[b]Thx Hive

CM8 Doing It Right The First Time :D

Enjoy

Source: 127.Hours.2010.SCR.NTSC.DVDR-TDP
thx

Video: 720x400 @bitrate 1800 2pass
Audio: English AC3 2.0 Stereo @192 1:1 from dvd-r
Sample: yes included

Encode:
well a bit late this release. really tried a lot with the dvd-r. There were a lot of 
problems mainly about the 30 frames of the scr. which made the video blocky and pixelated 
even with bitrate 1800 when touching in sharpness and brightness. 
Also the waterscenes didnt look nice @720x400, so converted the framerate to 23976 and added 
brightness,sharpness,corrected rgb colours,denoise and chroma. Now with lower framerate the 
video looks like it should be, better than the dvd-r itself.
decide yourself[/b]


[url]http://www.imdb.com/title/tt1542344/[/url]


General
Complete name                    : 127.Hours.2010.DVDSCR.XVID.HQ.Hive-CM8.avi
Format                           : AVI
Format/Info                      : Audio Video Interleave
File size                        : 1.30 GiB
Duration                         : 1h 32mn
Overall bit rate                 : 2 001 Kbps
Writing application              : Nandub v1.0rc2
Writing library                  : Nandub build 1853/release

Video
ID                               : 0
Format                           : MPEG-4 Visual
Format profile                   : Advanced Simple@L5
Format settings, BVOP            : Yes
Format settings, QPel            : Yes
Format settings, GMC             : No warppoints
Format settings, Matrix          : Default (H.263)
Muxing mode                      : Packed bitstream
Codec ID                         : XVID
Codec ID/Hint                    : XviD
Duration                         : 1h 32mn
Bit rate                         : 1 800 Kbps
Width                            : 720 pixels
Height                           : 384 pixels
Display aspect ratio             : 1.875
Frame rate                       : 23.976 fps
Color space                      : YUV
Chroma subsampling               : 4:2:0
Bit depth                        : 8 bits
Scan type                        : Progressive
Bits/(Pixel*Frame)               : 0.271
Stream size                      : 1.17 GiB (90%)
Writing library                  : XviD 1.2.1 (UTC 2008-12-04)

Audio
ID                               : 1
Format                           : AC-3
Format/Info                      : Audio Coding 3
Mode extension                   : CM (complete main)
Codec ID                         : 2000
Duration                         : 1h 32mn
Bit rate mode                    : Constant
Bit rate                         : 192 Kbps
Channel(s)                       : 2 channels
Channel positions                : Front: L R
Sampling rate                    : 48.0 KHz
Bit depth                        : 16 bits
Video delay                      : 100ms
Stream size                      : 127 MiB (10%)
Alignment                        : Split accross interleaves
Interleave, duration             : 42 ms (1.00 video frame)
Interleave, preload duration     : 500 ms



James Franco as Aron Ralston
Amber Tamblyn as Megan
Kate Mara as Christie
Clmence Posy as Ralstons lover
Lizzy Caplan as Sonja, Ralstons sister
  


A mountain climber becomes trapped under a boulder while canyoneering alone near Moab, Utah 
and resorts to desperate measures in order to survive.



[img]http://img573.imageshack.us/img573/3568/127ax.png[/img]
[img]http://img708.imageshack.us/img708/8937/127127.png[/img]
[img]http://img441.imageshack.us/img441/2038/127127127.png[/img]
[img]http://img143.imageshack.us/img143/5977/127121277127.png[/img]
[img]http://img706.imageshack.us/img706/5968/127121277127127.png[/img]
[img]http://img153.imageshack.us/img153/940/127121277127112727.png[/img]
[img]http://img51.imageshack.us/img51/3185/127121277127112727127.png[/img]
[img]http://img341.imageshack.us/img341/3932/12712127712711272712712.png[/img]





Greetz

iNK,LUSi,,MAGNET,CLASSiFiED,THC,LEGi0N,IMAGiNE,ViSiON,WBZ,FLAWL3SS,NOVA
Rapeseed,D2U,SAFC,goldadvance,MEMORY100,KaN1vE,Unevano,Pinnz,Wayne,Mr Hive
and all P2P groups 
Great Work Guys :D